# xmcd CD database file
#
# Track frame offsets:
#	150
#	15592
#	26447
#	37437
#	58712
#	68757
#	77825
#	89625
#	98942
#	110815
#	119945
#	130242
#	144625
#	157100
#	174657
#	188950
#	203640
#	214167
#	223795
#	234912
#	246555
#	258980
#	270632
#	288867
#	298717
#
# Disc length: 4183 seconds
#
# Revision: 0
# Processed by: cddbd v1.4PL0 Copyright (c) Steve Scherf et al.
# Submitted via: CDex 1.50
#
DISCID=92105519
DTITLE=Marty Robbins - The Best of Marty Robbins Disc 2
DYEAR=1900
DGENRE=Country
TTITLE0=Misty
TTITLE1=It had to Be You
TTITLE2=Love is Blue
TTITLE3=Sometimes When We Touch
TTITLE4=Love Is In the Air
TTITLE5=Ruby Ann
TTITLE6=Yesterday
TTITLE7=When the Roll is Called Up Yonder
TTITLE8=Almost Persuaded
TTITLE9=There's Power in the Blood
TTITLE10=Have Thine Own Way, Lord
TTITLE11=Will The Circle Be Unbroken?
TTITLE12=Streets of Laredo
TTITLE13=Big Iron
TTITLE14=Cool Water
TTITLE15=Ride, Cowboy, Ride
TTITLE16=Billy the Kid
TTITLE17=Just Married
TTITLE18=Begging to You
TTITLE19=Maria (If I Could)
TTITLE20=Tonight Carmen
TTITLE21=The Girl With Gardenias in Her Hair
TTITLE22=You Gave Me a Mountain
TTITLE23=Stairway of Love
TTITLE24=The Performer
EXTD=
EXTT0=
EXTT1=
EXTT2=
EXTT3=
EXTT4=
EXTT5=
EXTT6=
EXTT7=
EXTT8=
EXTT9=
EXTT10=
EXTT11=
EXTT12=
EXTT13=
EXTT14=
EXTT15=
EXTT16=
EXTT17=
EXTT18=
EXTT19=
EXTT20=
EXTT21=
EXTT22=
EXTT23=
EXTT24=
PLAYORDER=
